<?xml version="1.0" encoding="utf-8"?>
<!-- Generator: Adobe Illustrator 27.2.0, SVG Export Plug-In . SVG Version: 6.00 Build 0)  -->
<svg version="1.1" id="Layer_1" xmlns="http://www.w3.org/2000/svg" xmlns:xlink="http://www.w3.org/1999/xlink" x="0px" y="0px"
	 width="1609px" height="1463px" viewBox="0 0 1609 1463" style="enable-background:new 0 0 1609 1463;" xml:space="preserve">
<style type="text/css">
	.st0{fill:none;stroke:#729E8A;stroke-width:0.25;stroke-linecap:round;stroke-linejoin:round;}
</style>
<path class="st0" d="M730.5,774.1c29.3-39.4,126.4-154.8,187.1-214c60.7-59.2,113-102,142.3-125.2c29.3-23.2,35.3-27.2,16.6-11.8
	c-18.7,15.4-61.7,50.7-116.8,104.1c-55.1,53.4-121.2,125.2-181.3,203.4c-60.1,78.1-113.6,161.7-153.9,232.6
	c-40.3,70.9-68.1,128.7-86.9,163.2c-18.8,34.5-29.3,46.2-31.6,34c-2.3-12.2,4-48.2,25-102.3c21.1-54.1,58-126.1,110.7-201.7
	c52.7-75.6,121.1-153.9,189.8-220.3s136.5-120.9,185.1-158c48.5-37,77.3-57.1,79.8-58.4c2.5-1.3-21.2,16.6-62.7,55
	c-41.6,38.4-100.3,98-160,170.6C814,718.1,754.3,803.1,704.5,881.6c-49.8,78.5-90,149.6-121.6,198.8c-31.6,49.2-55.5,76.8-71.9,79.8
	c-16.4,2.9-25.2-18.6-19.5-60.1c5.8-41.5,27.2-103,68.6-172.4s103.4-145.9,174.1-215.3c70.7-69.3,148.9-131.1,213.8-178.3
	c64.9-47.2,115.6-80.5,140.1-97s22.9-16.1-1.4,5.2c-24.3,21.3-70.6,64.4-124.5,126.3C908.3,630.4,847.8,710.8,793,792.5
	c-54.8,81.7-104.1,163.4-146.1,226.5c-42,63.1-77.8,107.2-107.5,125.8c-29.7,18.5-53.4,11.8-64.1-16.9
	c-10.7-28.7-7.3-79.3,18.5-141.1c25.7-61.8,74.7-134.2,140.4-203.2s147.6-134,224.1-187.5c76.6-53.5,146.7-95.9,192.9-124.6
	c46.2-28.7,68.2-43.8,64.2-39.8c-4,4.1-33.7,28.2-77.1,74.8c-43.4,46.6-99.7,116-155.1,195.1C827.8,780.8,773.6,868.4,724.3,943
	c-49.2,74.6-94.3,135.3-135.3,170.3c-41,34.9-78.4,44.3-105.2,29.3c-26.8-15.1-42.2-54.4-35.2-107.9c7-53.6,37.7-120.9,91.8-187.7
	c54.2-66.9,131.5-132.6,213.3-189c81.8-56.3,166.5-103.8,232.3-140.7c65.8-36.9,112-63.7,130.3-74.9c18.3-11.2,9.1-6-19.7,22.5
	c-28.8,28.5-76.1,81.3-127.6,151.5c-51.6,70.2-106.8,157.1-159.5,239c-52.7,81.9-103.7,157.5-153.2,209.1
	c-49.4,51.5-97.9,78.9-139.3,79.1c-41.4,0.2-75-26.5-88-71c-12.9-44.5-3.9-106.4,33-170.5C499,837.8,564,772.1,643.3,714.8
	c79.3-57.3,171.6-106.7,252.8-147.6c81.1-41,150-74.5,191.6-97.2c41.6-22.7,55.8-34,45.5-24c-10.3,10-44.2,42.5-87.9,98.2
	c-43.7,55.7-96.2,134.3-148.8,217.5c-52.6,83.2-106,169.5-160.2,236.3c-54.2,66.8-110.3,113.4-163.5,130.9
	c-53.2,17.4-103.1,5.9-135.6-27.9c-32.5-33.8-46.5-89.4-30.9-150.6C422,889,468,823.1,537.1,765.2c69.1-58,160.4-108,250.4-150.1
	c90-42.1,177.4-77.5,241.1-106.7c63.8-29.2,103.4-52.1,114.8-58.6c11.4-6.5-4.8,5-36.6,42.1c-31.8,37.1-78,100.4-127.3,177.8
	c-49.3,77.4-101.7,167.7-157.1,246.2c-55.3,78.5-114.7,143.9-175.8,180.1c-61.1,36.2-123.9,43.1-174.2,22.8s-87-67.4-94.6-125
	c-7.6-57.5,14.9-124.2,67.1-183.7c52.2-59.5,133.7-111.3,224.6-153.5S859.6,580.3,942,549.5c82.4-30.8,147.2-59.1,182.4-77.5
	s41.1-25.8,25.2-8.6c-15.9,17.1-52.1,59.8-95,124.6c-42.9,64.8-92.1,150.8-145.3,235.1c-53.2,84.2-111.7,165.2-176.2,220.2
	c-64.5,55-135.5,83.3-200.3,79.8c-64.8-3.4-122.2-38.2-153.3-89.8c-31.1-51.6-34.7-118.7-4.5-180.8c30.3-62.1,94.3-118,177.8-161.5
	c83.5-43.5,185.3-75.7,280.2-104.7c94.9-29,181.6-56.2,240.9-80.7c59.3-24.4,90.8-45.1,94.9-46.4c4.2-1.3-17.6,18.4-51.1,65.1
	c-33.5,46.7-77.4,120.1-126.1,202.7c-48.6,82.5-103,172.7-166.4,243.8c-63.4,71.1-136.8,121.9-211.3,138.7s-149-0.7-202.2-42.5
	s-83.7-107-78.5-171.6c5.1-64.7,46-127.3,114.5-174.8c68.5-47.5,164-80.4,263.3-106.7c99.3-26.3,201.4-48.1,282.2-72.2
	c80.8-24.1,139.2-50.4,166.9-65.6c27.7-15.2,25.4-17,5,8.6c-20.3,25.7-56.8,79.5-99.1,152.5c-42.3,73-90.9,163.8-149.4,245.6
	c-58.5,81.8-128.8,153.1-207.2,191.7c-78.5,38.5-164.6,43.6-236.7,16.4c-72.1-27.1-128.5-85.3-149.9-150.6
	c-21.4-65.3-7.5-135.8,40.2-190.3c47.7-54.6,128.6-92.8,223.7-118.6c95.1-25.7,203.7-41.2,300.3-60.1s180-42.7,232.9-64.7
	c52.9-22.1,75-40.4,72.3-35.4c-2.7,5-28.3,35.1-62.5,91.6c-34.2,56.5-76.5,138.6-127.9,223.6c-51.4,84.9-114,171.1-190.4,230.3
	c-76.4,59.2-167,89.9-253,82.9c-86-7.1-165.4-51.6-213.1-113.3c-47.7-61.7-62.9-138.3-40.1-201.7c22.8-63.4,82.8-112.2,165.8-142
	c83-29.7,188.5-41.9,292.9-54.1c104.4-12.2,206.9-26.7,283.7-47.7c76.8-21.1,126.8-47.5,146.2-59.1c19.4-11.6,9.8-5.9-13.7,29.6
	c-23.5,35.4-59.1,100.4-102.5,179.8s-96.3,171.8-165.5,247.1c-69.3,75.3-156.5,131.7-249.7,148.6c-93.1,16.9-190.2-6.4-262.1-58.1
	c-71.9-51.7-117-129.6-121.8-201.2c-4.8-71.6,30-134.7,94.6-173.7c64.6-39,158.5-54.6,261.8-62.3c103.3-7.7,215.6-10.3,311.5-23.6
	c95.9-13.3,173.6-37.7,218.4-58.7c44.8-21,57.2-35.7,48.4-22.7c-8.8,13-36.1,54.7-71.2,120.5c-35,65.7-78.3,154.4-137.4,238.4
	c-59,84-136.3,161.5-228.8,203.3c-92.5,41.8-199.3,46.1-291,11.8c-91.7-34.2-165.6-105.5-199.3-181.5
	c-33.7-76-27.4-153.8,14.3-206.4c41.8-52.6,117.9-79.5,211.8-88.4s205.9-2.4,312.9-4.5c107-2.1,207.4-15,278.1-36.1
	c70.7-21.1,110.4-48.2,121.4-54.9c11-6.8-4.3,9-30,54.7c-25.7,45.8-60.9,120.9-108.8,204.4c-47.9,83.4-111.3,173.7-196.1,237.5
	c-84.7,63.7-191.6,98.3-296.1,88.3c-104.5-10.1-203.6-64.7-265.9-138.3c-62.3-73.6-87-162.6-71.5-230.5
	c15.5-67.9,69.7-112.9,148-130.4s181-9.4,289.6-1.6c108.6,7.8,222.7,11.9,315.7-0.4c92.9-12.3,162.4-40.1,197.9-60
	c35.5-19.9,38.5-28.4,24.9-5.9c-13.6,22.6-41.5,76.4-79,150c-37.5,73.6-86.6,166.1-158.6,244.8c-72,78.7-169.1,141.4-277.6,159.5
	c-108.4,18-225.5-10.2-313.8-72.2c-88.3-62-145.6-154.6-158.9-235.7c-13.3-81.1,15.6-148,74-181.2c58.4-33.2,145.7-33.6,247.1-21.9
	s217.9,32,325.4,34.6c107.5,2.6,203.8-13.8,266.3-36.9s90.8-49.1,93.9-49.1s-15.7,27.6-43.5,83.6c-27.8,56-65.1,139.6-122.3,223.9
	c-57.2,84.3-137.8,167.5-240.7,213.1c-102.9,45.7-227.1,50.7-335.7,9.9c-108.6-40.8-197.7-125.6-241.6-214
	c-43.9-88.4-43.6-176.2-8.3-229.9c35.3-53.6,103.8-72.5,191.7-65.9c87.8,6.6,196.4,35.9,308.5,54.2c112.1,18.3,226.5,22.4,314.2,7.1
	c87.8-15.3,146.4-47.3,171.9-64.6c25.5-17.3,20.7-16.8,3.3,16.4c-17.4,33.2-45.8,98.5-89,178c-43.2,79.5-104.6,172-194.1,239.9
	c-89.5,67.9-208.6,107.6-328.5,95.6c-119.9-11.9-236.2-76-310.8-161.9c-74.5-85.9-106.6-189.1-97.3-263.9S285.3,500,355.8,491.9
	c70.4-8.1,164.5,18.5,271.2,47.4c106.7,28.9,226.9,56,333.3,57.7c106.4,1.6,195.5-22.1,247.8-47.3c52.4-25.2,69.1-47.3,65.4-38.4
	c-3.7,8.9-24.3,49.2-55.7,114.5c-31.3,65.4-75.4,155-147.2,235.7c-71.8,80.7-174.7,149.7-294.8,169.9
	c-120.2,20.2-254.1-11.4-356.2-83.1c-102.2-71.7-169.3-179.3-189.3-271.5s4.1-165.4,55-196c50.9-30.6,127.7-19.3,221.8,10.6
	c94.1,29.9,207.8,74.6,322.3,97.1c114.5,22.5,227.2,20,307.2-0.7c80.1-20.7,125.8-55.5,141.4-67.9c15.6-12.4,5.2-0.3-15.6,43.9
	c-20.8,44.2-51.9,119.9-105.5,202.1S1023,935.6,913.5,985.3c-109.5,49.7-247.3,57.1-369.9,11.1C420.9,950.3,319,852.8,267,751.8
	c-52-101-55.8-200.4-26.7-257.7s88.6-71.9,166.4-52.7c77.8,19.2,176.5,69.7,287.7,110.1c111.2,40.5,234.7,66.4,337.8,62.1
	c103-4.3,181.5-36.8,222.4-62.4c40.9-25.7,47.3-40.4,38.1-20.9c-9.2,19.4-31.3,72.5-69.1,145.5c-37.8,73-95,165.2-185.9,236.2
	c-90.9,71-218,116.4-349.8,104c-131.9-12.4-262.7-84-347.2-181.4S218.8,619.6,223,536.3c4.2-83.3,45.7-130.5,106.2-132.6
	c60.5-2.2,141.3,39.3,240.2,88.5c98.9,49.2,218.6,101.7,334.5,121.6c115.9,19.9,223.6,6,293.3-20.7c69.8-26.7,101.6-60.7,108.4-65.5
	c6.8-4.8-7.1,20.4-32.3,75.2c-25.2,54.8-63.4,138.8-132.5,219.4C1071.7,902.8,967,977.3,839,1000.3c-128,23-275.4-9.9-388.9-89.6
	c-113.5-79.8-188.6-201.4-213.6-304.9C211.4,502.3,232,420.9,275,390c43-31,107.1-12.2,189.3,32.9C546.4,468,650.4,536.2,766.3,581
	c115.9,44.8,241.3,61.7,338.1,48.1c96.8-13.6,161.3-53.3,190.4-76.7c29.1-23.4,27.4-27.3,13.5,3.6c-13.9,30.9-39.1,96-87.8,173.8
	c-48.7,77.8-125.8,167.2-238.2,220.4c-112.4,53.2-259.6,64.4-393.1,15C455.8,915.8,343.1,807.8,284.8,695
	c-58.3-112.8-64.8-224.1-41-286.8c23.7-62.7,73.7-76.8,138.8-48.9c65,27.9,148.5,96.1,252.9,158.4c104.4,62.3,231,113.5,346.3,124.7
	c115.3,11.2,213.6-16.3,270.9-47.3c57.3-31,76-59.9,75.4-54.8c-0.7,5.2-17,44.1-49.1,108.1c-32.1,64.1-83.6,153.1-172.9,225.6
	c-89.3,72.5-219.9,123.5-360.1,112c-140.1-11.5-282.7-88-375.2-195.2S237.2,553,237.5,460.7c0.3-92.3,36.5-144.5,86.2-144.3
	c49.7,0.2,114.2,51.7,200.4,118.6c86.2,66.8,198.4,144.7,318.9,186c120.5,41.3,244.4,42.9,331.4,19c87-23.9,135.7-67,153.8-84.7
	c18.1-17.7,10.9-8.5-8.2,34c-19.1,42.5-51.3,117.9-115.9,196.1c-64.6,78.2-167.3,156.5-299.3,182.6c-132,26.2-289.1-5.7-411.4-91.3
	c-122.3-85.5-203.9-219-232.8-333.1c-28.9-114.1-10.8-204.4,24.6-238.2c35.4-33.9,86-12.2,153,44.1c67,56.3,155.7,145,267.2,212.7
	s244.5,108.2,356,106.3c111.5-1.8,195.8-41.9,239.5-73.9c43.7-32,51.7-51.6,44.8-34.9c-6.9,16.7-26.6,69-69.6,139.8
	c-43,70.8-114.7,159.5-226.4,215.3c-111.7,55.8-264.1,71.7-405.3,21.1c-141.2-50.6-262.6-166.3-325.9-289S247,401.6,266,332.2
	c19-69.4,60.1-86.2,111.2-53.6c51,32.5,115.7,113.3,208,195.4c92.3,82.1,215.4,159.6,339,190.1c123.6,30.5,240.6,13.4,314.8-19.2
	c74.2-32.6,107-73.8,115.6-82.7c8.6-8.9-2.2,14.6-28.4,67.7c-26.2,53.1-71.2,136-156.4,208c-85.2,72-215.3,127.9-359.9,118.5
	c-144.6-9.3-296-87.7-394.8-202C316.2,640.1,271.8,498.2,269,397.1c-2.8-101.1,28.8-159.8,67.7-160.5c39-0.7,86,55.7,155.8,136.2
	c69.8,80.5,168.3,181.4,288,245.6c119.7,64.2,255.8,86.2,359.2,69.6s170.4-65,200.9-93.9c30.6-28.9,30.8-36,17.9-7.1
	s-39.2,93.3-98,166.6c-58.8,73.3-156.5,153.1-288.7,182.3c-132.2,29.2-295.2,0.4-423.8-88.2c-128.7-88.5-215.9-230.7-248-353.9
	c-32.2-123.2-16-222.4,12.4-261.1s65.9-18.2,116.2,44.7s119.3,167.4,220.9,256.5C751.1,623,885.8,689.5,1009,703.7
	c123.2,14.2,227.3-21.1,286.7-58.7c59.4-37.6,78.6-71.7,79.3-69.4c0.7,2.3-13.8,40.1-50.7,101.7c-36.9,61.6-101.6,146.6-209.6,203.5
	c-108,56.8-261.1,77.9-406.8,28.2c-145.7-49.7-274-169.3-341.6-299.4s-77.5-262.3-62.7-338.9c14.8-76.6,48-98.5,84.9-65.3
	c36.9,33.1,81.2,121.1,157.4,219.3c76.1,98.2,189.2,201,316.3,253.2s260.2,50.9,351.2,20.9c91-30,139.8-80.5,158.8-102.4
	c18.9-21.9,14-14.6-6.2,26c-20.2,40.6-58.5,114.5-137.6,183.7c-79.1,69.1-204.9,128.5-350.4,122.2
	c-145.5-6.3-302.5-83.4-406.3-201.8C367.7,608.1,320.1,457.7,314.2,348.6c-5.9-109.1,21.8-175.1,50.6-179.5
	c28.8-4.4,58.9,52.1,110.2,141.5s131.3,209.3,244.8,296c113.5,86.7,256.8,132.7,374.6,127.9c117.8-4.8,204-53.9,248.4-91.6
	c44.3-37.8,53.3-60.5,47-45.9c-6.3,14.6-26.9,66-79,131.9c-52.1,65.9-142.4,144.7-271.4,176.3c-129,31.6-293.7,7.5-426.5-81.1
	c-132.8-88.6-225-235.7-260.5-365.9c-35.4-130.2-21.4-237.7,0.5-282.6c21.8-44.9,47.6-28.9,80.8,36.2
	c33.2,65.1,80.4,179.5,167.7,287.2c87.3,107.6,217.2,200.5,348.2,233.9c131,33.4,253.5,8.4,329.2-31c75.7-39.4,108-85.8,117.3-97.5
	c9.3-11.7,0.1,10.6-30.3,61c-30.4,50.4-87.3,128.9-189.1,185.1c-101.8,56.1-251.6,82-398.6,35.2c-147-46.8-280.5-166.6-352-301.1
	c-71.5-134.5-83.9-274.4-73.4-358.1c10.6-83.7,36.8-112.4,60.3-82.2c23.5,30.2,47.8,120,105.1,229.7s155,234.6,280.4,309.3
	s270.6,93.6,377.5,70.7c107-22.9,173.2-79,203.9-112.1c30.7-33.1,32.6-41.8,18.7-14.9c-13.8,26.9-45.3,89.6-116.9,153.6
	c-71.6,64-190.1,124.8-333,122c-143-2.8-302.5-75.7-410.1-194.8C430.9,588.5,379.3,432.9,369.9,317.3
	c-9.4-115.6,14.3-189.4,33.8-199.6c19.5-10.2,34.1,42.3,66.5,135.7c32.4,93.4,90.8,226.9,193.2,334
	c102.4,107.1,246.9,178.9,376,189.7c129.1,10.9,234.6-33.8,293.9-77.2c59.3-43.4,78.6-80.3,79.7-80.1c1.1,0.3-13.9,37.2-58.6,93.7
	c-44.7,56.5-126.1,131.5-249,164.4c-122.9,33-285.4,14.7-420.1-71.2c-134.7-85.9-231.6-234-270.9-368.7
	c-39.3-134.7-28.3-249.4-12.7-301.2c15.6-51.8,31.1-42.9,48.2,20.3c17.2,63.2,42.2,181.9,112,303.8c69.8,121.9,189,239.3,323,293.7
	c134,54.5,272.4,44.7,364.3,7.7c91.9-37,139.2-92.7,158.4-117.2c19.2-24.5,15.9-18.1-7.7,19.7c-23.6,37.8-72.1,107.2-165.7,160.6
	c-93.6,53.4-236.5,83.2-381.8,40.8C707.1,823.8,570.4,707.7,494.9,572c-75.5-135.7-91.7-280.9-85.9-371.1
	c5.9-90.3,25.7-127,37.2-102.4c11.5,24.6,17.2,111.3,54.9,227.5s116,258.4,234.6,354.6s270.8,138.4,391.6,126.8
	c120.8-11.6,205.5-68.6,249.4-110.3c43.8-41.8,54.1-65.7,47.2-52.9c-6.8,12.8-31.6,62.3-94.6,119
	c-63.1,56.7-171.8,116.7-309.1,117.3C882.8,881,724,814.7,613.7,698.1S447,424.2,433,303.8c-13.9-120.4,5.3-201.8,16.3-219.2
	c11-17.4,12.2,27.9,26.6,120.8c14.3,92.9,50.1,234,137.7,358.1s227.1,221.1,363.5,250.4c136.5,29.3,259.7-5.7,334.5-50.9
	c74.8-45.2,106.6-94,116.4-107.4c9.8-13.4,0.7,8.2-36.1,53.6c-36.8,45.4-108.2,113.8-222.5,146.8c-114.3,33-271.1,21-405.4-59.8
	C629.7,715.1,528.4,570,484.4,433.5c-44-136.5-37.6-257.1-28.3-316.1c9.3-59,15.9-58.8,18.7-0.9c2.7,57.9,7.1,175.5,57.8,306.8
	s154.2,269.2,286.2,345s282,85.4,389.1,55.1c107-30.3,171-91.2,201.7-126.5c30.7-35.3,34.5-44.5,18.2-20.2
	c-16.2,24.3-56.2,82.4-140.1,131.2c-83.9,48.8-216.9,81-357.8,44c-140.9-37-278.9-146.2-358.4-279.9
	C492,438.3,470.1,290.4,470.3,194.5c0.2-95.9,13.8-141.2,14.7-124.3c0.9,16.9-9.4,96.9,9.2,214.6c18.6,117.8,75.3,271.5,182.7,386.5
	c107.4,115,260.5,181.8,392,185c131.5,3.3,234.4-49.4,292.5-96.5c58.1-47.1,78.6-84.6,79.9-85.7c1.2-1.2-16.5,34-70.3,81.6
	c-53.8,47.6-151,104.3-280.1,107.8C961.9,867,806.9,809,695.1,697.8S521,431.2,501.2,307.9S495,96.1,498.1,70.6
	c3.1-25.5-6.8,10.4-8.7,98.9c-1.9,88.5,12.1,231.5,82.3,367.8c70.2,136.3,199,256.2,338,305.3c139,49.1,277.2,28.8,367.3-14.1
	c90.2-42.8,136.4-100.3,156.2-125.9c19.9-25.6,17.7-19.5-10.7,13.6c-28.4,33.1-89.1,92.7-193,124.1
	c-103.8,31.4-251.6,25.3-383.4-48.5C714.5,718,609.4,579.5,559.9,444c-49.6-135.5-49.8-260.4-47.3-326.4c2.4-66,1.3-75.5-8.4-25.5
	c-9.7,50-23.3,162.1,8.1,297.6c31.4,135.5,115.9,288.8,241,384.3c125.1,95.6,281.4,127.3,401.3,107.8
	c119.9-19.5,201.3-81,244.8-124.3c43.5-43.4,56.1-67,48.2-56.3c-8,10.7-39.1,55.9-112.2,98.1c-73.1,42.3-193.9,75.2-327.7,43.9
	C873.7,812,736.6,712.5,653.3,583.8s-112.6-276.5-119.4-377c-6.7-100.5,0.3-154.4-8.1-146.5c-8.5,7.9-31.8,78.3-30.7,193.3
	c1.1,115,36,274.1,128.8,403.9c92.8,129.9,240.7,220.2,378.7,240.8c138,20.6,257.4-22.7,330.3-71.2s105.8-97,116.4-111.1
	s0.6,6.1-43.2,43.2c-43.8,37.1-128.3,88.4-246.9,93.8c-118.6,5.5-266.8-43.4-378.8-146.8C668.3,602.9,599.5,452.8,572.6,328.7
	C545.7,204.5,552,109.8,547.3,75.8c-4.7-34-23.6-8.8-39.4,72.2c-15.8,81-21.4,220.6,30.4,364c51.7,143.4,165.2,281.8,301.7,350.5
	c136.6,68.7,285.1,66.8,389.3,30.5c104.2-36.2,166.2-98.1,197.8-133.6c31.5-35.6,37.7-44.3,18.5-24c-19.2,20.3-68.8,69.3-160.6,97.5
	c-91.9,28.3-227.9,27.2-355-38.4C802.6,728.9,694.8,600.2,639,468.2c-55.9-131.9-64.6-259.2-69.9-331.6
	c-5.2-72.4-13.5-92.2-33.7-51.7c-20.2,40.4-48.6,143.6-35.3,278.4c13.3,134.8,77.1,297.2,191,409.5
	c113.9,112.3,270.3,166.8,399.7,161.3c129.4-5.4,227.5-62.3,284.9-110.2c57.4-47.9,80.8-84,82.3-86.5c1.5-2.5-20.3,29-81.7,63.3
	c-61.4,34.4-168.2,66-292.8,40.3c-124.6-25.7-258.4-113.8-345.2-235c-86.8-121.2-124.9-266-139.9-369.6
	C583.4,133,583,70.6,566.2,68.8c-16.8-1.8-50.4,57.3-64.4,165.7c-14,108.4,0.4,266.9,76.5,406.8S791.2,892,930.8,930.9
	c139.6,38.9,272.2,9.7,359.4-36c87.2-45.7,134.2-101.6,155.8-126.9c21.6-25.3,20.3-19.7-12.7,6.1c-33,25.8-104.1,69.7-210.5,75.9
	c-106.4,6.3-245-33.5-355.8-127.3S680.9,487.3,645.7,364.5c-35.2-122.8-37.9-222.6-50.5-264.9c-12.7-42.3-39.1-28.6-66.4,42.7
	c-27.3,71.3-49.2,203.1-15.7,348.4S641.5,787,770.7,873.5s282.4,105,398,79.3c115.7-25.7,193.9-87.3,238.4-129.8
	s60.7-64.6,51.8-56.9c-8.9,7.7-46.8,44.8-125.6,68.6c-78.8,23.7-200.9,26.3-321.4-30.7c-120.4-57-229.5-173.6-291.9-299.4
	s-81.5-253.4-95.4-331.3c-13.9-77.9-29.3-107.8-58.3-78c-28.9,29.8-68.9,121.5-71.6,251.2C492,476.2,535.1,641.2,634.6,766
	c99.4,124.7,249.5,200.5,384,211.2c134.4,10.7,247.2-36.6,318.7-85.1c71.4-48.5,107.6-94.1,120.1-108.3c12.4-14.2,0.8,3.3-48,28.8
	c-48.8,25.4-140.5,54.1-253.9,33.2s-241.6-96.6-330.9-208.2C735.1,526,687.3,386.8,662.8,281.9C638.4,176.9,629.4,107,604.7,95.3
	c-24.7-11.7-66.1,35-92.5,134c-26.4,99-29.9,251.6,28.5,396C599,769.7,720.3,896.3,856.3,952.9c136,56.6,276.9,44.8,376.7,6
	c99.8-38.9,162-97.9,196-131.8c34-33.9,43-41.9,21.7-27.5c-21.3,14.4-78.3,49.5-171,55.3c-92.7,5.8-219.5-25.5-327.2-108.6
	c-107.7-83.2-188.9-213.8-233-333C675.4,294,662,190.6,640.9,140.7c-21.1-49.9-54.1-47.9-90.6,12.2c-36.5,60-71.3,180.8-54.6,322.9
	c16.7,142.1,91.4,299.4,208.8,400.1c117.4,100.7,269,140.1,392.4,127.8c123.4-12.3,216.8-68.6,275-114.3
	c58.2-45.8,86.4-78.8,89.1-82.7c2.7-4-22.9,20.9-87.6,39.1c-64.7,18.1-171.4,22.8-283.1-25.8c-111.7-48.5-220.1-151.4-288.7-269.1
	c-68.6-117.7-99.2-243.1-122.8-325.1c-23.6-82-46.6-121.6-83.1-103S511,220,494.7,340.9c-16.3,121,7.7,282.7,90.4,414.6
	s220.9,225.5,355.2,253c134.4,27.5,258.1-6.2,342.8-51.1c84.6-44.9,135.1-96.3,159.9-120.1c24.8-23.8,24.6-19.4-10.7-3.2
	c-35.4,16.2-111,40.2-211.6,23.3c-100.5-16.9-220.7-80.4-311.2-180.9c-90.5-100.5-148-231.4-182.6-335.8
	c-34.7-104.4-53.6-180.7-86-201.9c-32.4-21.2-79.9,12.7-116.1,100.1c-36.2,87.4-54.4,229.8-13.5,373.2
	c40.9,143.4,143.4,279.6,270.8,351.6c127.4,72,270.8,79.2,380.3,50.8c109.5-28.5,186.8-85.8,234.3-125c47.4-39.2,68.5-58.7,60.1-55
	c-8.4,3.7-50.7,29.3-128.6,33.6c-77.9,4.3-190.8-19.8-293.5-92C932,703.8,846.4,586.1,793.3,472.5c-53.1-113.6-78.4-218.4-108.5-275
	c-30.1-56.6-69.4-65.8-113.3-17.9c-43.8,47.8-88.2,155.1-86.3,289.5c1.9,134.4,56.5,291.3,158.8,401.6
	c102.4,110.3,246,168.4,372.4,171.2c126.4,2.7,232.5-43.7,304.1-88.7s113.6-85.5,129.2-99.3c15.7-13.7,3.4-0.6-46.3,11.3
	c-49.7,12-139.7,17.1-240.8-23.6c-101.1-40.7-206.5-129.2-280.3-237C808.8,497,766.2,376.2,732.2,291.7
	c-34-84.5-65.4-132.8-108.7-125.2c-43.3,7.5-97.6,72.3-124.8,181.6c-27.1,109.2-20,262.2,45.2,395.7
	c65.2,133.5,186.7,239.7,315.7,282.7c129,43.1,258.7,25.8,354.4-11.7c95.7-37.5,161-90.2,199.4-120.5c38.4-30.3,51.2-37.3,30.2-30
	c-21,7.3-79.9,25.8-166.1,11.7c-86.2-14.1-196-66-285.8-154.6c-89.8-88.6-155.9-209-201.1-310.9c-45.2-101.8-75.1-182.8-115.3-212.7
	c-40.2-29.9-92.8-8.7-136.6,65.5c-43.8,74.2-73.3,203-48.6,340.2C514.9,740.8,597,880,711.5,963.5c114.5,83.5,254,109.2,369.2,93.6
	c115.2-15.7,206.1-66.7,267.2-107.3c61.1-40.6,96-68.7,101.6-74c5.6-5.4-21.1,10.8-83.2,12.8c-62,2-159.5-16.3-255.1-77.7
	S927.7,645.8,866.4,539.8c-61.3-106-99.1-210-138.8-271.7c-39.7-61.7-85.5-81.4-135.4-46.1c-49.9,35.3-100.9,127.4-111.5,250.4
	c-10.5,122.9,25.2,273.2,110.3,387.7c85.2,114.4,215.3,187.3,339.6,205c124.3,17.7,238.9-15.4,322.6-55.7
	c83.7-40.3,140.4-84.2,170.2-104.9c29.8-20.7,32-18-1.7-12.1c-33.8,5.9-106.2,10.3-195-23.4c-88.8-33.7-188.7-108.1-265.8-204.7
	C883.8,567.7,829.9,454,785.2,369c-44.7-85-85.4-140.4-135.1-143.5c-49.8-3-108.4,47.4-144,142.7s-42.3,234.9,5.4,364.3
	c47.8,129.4,149.8,241.9,268.6,297.7c118.8,55.7,248.5,55.7,352,28.5c103.5-27.1,182.9-76.4,235.4-109.6
	c52.5-33.2,79.7-48.8,74.2-49c-5.5-0.2-47.1,12.4-117.7,0.4c-70.7-12.1-168-53.7-254.9-130.2c-86.9-76.5-159.8-184.7-214.9-281.8
	c-55.1-97.2-96.8-180.6-145.2-218C660.6,233,603.3,242,553.6,302.2c-49.7,60.2-87.5,172.7-77.2,299.3
	c10.3,126.5,72.1,262.1,170.5,352c98.4,89.9,228.2,131.5,344.3,129.5c116.1-2,217.4-42.7,291.6-80.8
	c74.1-38.1,123.8-70.6,144.6-82.6c20.8-12,10.3-4.1-34.9-4.5c-45.3-0.4-125.9-14.3-212.4-65.7c-86.5-51.4-174-140.2-241.9-236.9
	C870.2,515.8,820,415.2,770.4,350.1c-49.6-65-102.5-93.9-157.7-71.1C557.5,302,501.9,378,481.2,486.4
	c-20.7,108.4-1.6,246.7,65.5,359.4c67.1,112.7,179.7,194.8,296.8,225.6c117.1,30.7,235.1,12.9,328.4-19.3
	c93.3-32.2,164.5-74.8,209.2-99c44.6-24.2,62.5-29.4,45.5-28.5c-17,0.9-71.2,3.9-146.1-23.8c-74.9-27.7-166.6-88.8-244.9-173.5
	c-78.2-84.7-141.9-189.2-197-272.5c-55.1-83.3-105.7-143.9-162-156.6c-56.3-12.6-118.4,23.6-160.6,103.4
	c-42.2,79.8-59.9,202.6-28.4,322.7c31.4,120.1,112.6,232.2,217.3,296.2c104.7,64.1,228.4,79.7,335.6,64.6
	c107.2-15.1,198.5-56.6,264.9-88.7c66.3-32,109.1-52.5,119.8-58.1c10.8-5.5-12.8,2-66.9-8.6c-54.1-10.5-137.1-43.3-218.7-108
	C1058,757,981,662.2,917.3,571.7c-63.7-90.5-117.2-173.8-174-217c-56.8-43.2-119-45.5-173.5,0.3c-54.6,45.8-98.3,140.4-100.3,252.4
	c-2,112,40.6,237.7,121.2,328.3c80.6,90.7,195.6,143.4,307.7,154.1c112.1,10.8,219.6-17,304.8-48.8c85.2-31.7,150-64.3,186.5-79.6
	c36.5-15.2,43.2-13.5,15.4-15.8c-27.8-2.3-90.7-12.9-166-55c-75.3-42.1-159.4-116.6-231.7-202.8C935.2,601.7,873.9,507,814.6,440.8
	c-59.3-66.2-119.9-102.6-180.2-91.5c-60.4,11.1-119.2,70.5-148,162.1c-28.8,91.6-23.9,213.4,25.5,318.7s141.9,190.1,247.5,230.3
	c105.7,40.2,221.4,37.2,320.8,15.5c99.4-21.7,183.7-58.5,243-82.2c59.3-23.7,93.6-33.1,93.9-35.4c0.3-2.3-35.1-0.6-94.7-22.9
	c-59.6-22.3-140.7-71.5-217.4-144c-76.7-72.6-147.6-166.1-211.9-245.5c-64.3-79.4-125.2-142.8-188.2-163.6
	c-63-20.9-128.5,1.7-176,65c-47.5,63.3-73.6,166.8-56.8,273c16.8,106.2,77.3,211.2,165.5,278.1c88.1,66.9,200.7,94.8,306.9,91.8
	c106.3-3,206.1-33.6,284.8-60.5c78.7-26.9,137.1-47.7,164.6-55.4c27.5-7.7,22.2-3.7-14.5-12.5c-36.7-8.8-103.9-34.1-177.6-87.6
	c-73.8-53.5-151.6-134.5-221.7-216.6c-70.2-82.1-134.6-162.7-199.8-209.7c-65.2-47-132.8-59.3-191.8-27.7
	c-59,31.6-107.1,107.2-119.5,201.6c-12.4,94.4,13.2,205,75.6,290.4c62.4,85.5,159.5,143.3,263.2,164.2
	c103.7,20.8,212.5,6.7,305.7-15.8c93.3-22.5,172.1-50.3,224.1-64.8"/>
</svg>
