<svg width="697" height="634" viewBox="0 0 697 634" fill="none" xmlns="http://www.w3.org/2000/svg">
<path d="M243.933 249.707C224.722 220.398 175.747 134.12 154.658 91.0732C133.569 48.0263 119.813 19.0126 107.705 8.87162C95.5967 -1.26939 84.658 7.24319 77.4097 33.7678C70.1614 60.2923 67.2782 105.162 77.8369 161.266C88.3957 217.37 113.514 284.429 153.675 347.199C193.835 409.97 248.766 467.435 302.476 507.9C356.186 548.364 407.233 571.993 438.217 578.579C469.201 585.165 479.492 575.4 467.601 552.097C455.71 528.795 422.265 491.582 381.55 443.603C340.835 395.623 294.134 336.598 255.685 276.78C217.237 216.962 187.307 157.113 166.429 109.979C145.551 62.8445 132.69 28.6854 121.672 13.2493C110.655 -2.18684 100.879 0.836696 93.3519 22.2521C85.8246 43.6676 81.0733 83.7618 87.8235 136.664C94.5736 189.567 113.959 255.163 148.537 319.135C183.116 383.107 232.873 444.464 284.073 490.204C335.273 535.945 386.541 566.023 420.068 578.444C453.595 590.864 468.593 586.308 461.411 567.226C454.229 548.144 425.35 514.275 387.602 468.537C349.853 422.799 304.5 364.844 266.424 304.368C228.347 243.893 197.992 181.604 177.245 130.721C156.498 79.8382 144.402 40.7307 134.532 20.0893C124.662 -0.55213 116.301 -3.00501 108.969 13.213C101.637 29.4311 95.7165 64.5407 99.306 113.797C102.895 163.053 117.104 226.482 146.248 290.868C175.393 355.255 219.686 419.675 267.786 470.16C315.885 520.646 366.529 556.96 401.883 575.272C437.237 593.583 456.379 594.54 453.642 580.023C450.906 565.506 426.623 535.375 392.005 492.309C357.387 449.243 313.664 392.849 276.115 332.222C238.567 271.595 207.807 207.372 187.115 153.117C166.423 98.8622 154.95 55.0397 146.236 29.3207C137.521 3.60167 130.757 -4.30079 124.037 6.66625C117.316 17.6333 110.877 47.6102 111.955 92.8435C113.033 138.077 122.694 198.712 146.655 262.759C170.616 326.807 209.298 393.446 253.809 448.081C298.321 502.716 347.541 544.939 384.006 569.111C420.471 593.284 443.137 599.987 444.516 590.339C445.896 580.692 426.164 554.676 394.795 514.697C363.426 474.718 321.592 420.36 284.735 360.09C247.879 299.819 216.759 234.187 196.056 176.967C175.353 119.746 164.341 71.4927 156.75 40.8521C149.16 10.2115 144.106 -3.07908 138.352 2.61647C132.598 8.31201 126.234 33.0489 125.449 73.9519C124.664 114.855 130.445 172.149 149.566 235.152C168.688 298.154 201.747 366.164 242.286 424.295C282.825 482.426 329.901 530.138 366.77 560.053C403.639 589.969 429.17 602.572 434.278 598.057C439.385 593.542 424.083 571.987 396.031 535.491C367.979 498.996 328.264 447.131 292.261 387.719C256.257 328.308 224.852 261.807 204.082 202.06C183.311 142.313 172.596 89.9492 166.064 54.5778C159.531 19.2065 156.239 0.609678 151.74 1.04319C147.241 1.4767 141.494 20.9138 139.47 57.2373C137.446 93.5608 140.048 147.054 154.756 208.358C169.464 269.661 197.011 338.208 233.308 399.151C269.605 460.095 313.894 512.779 350.487 548.229C387.08 583.679 414.789 602.262 423.184 603.084C431.58 603.907 420.519 587.136 395.793 554.493C371.067 521.851 333.678 472.921 298.686 414.863C263.695 356.806 232.093 289.982 211.212 228.17C190.331 166.358 179.745 110.249 174.174 70.375C168.603 30.5014 167.071 6.70721 164.058 1.91967C161.046 -2.86787 156.377 11.2378 153.714 42.7911C151.051 74.3444 151.182 123.653 161.965 182.662C172.747 241.672 195.021 309.958 226.911 373.002C258.802 436.046 299.765 493.114 335.443 533.809C371.122 574.504 400.308 599.055 411.51 605.367C422.712 611.679 415.63 599.973 394.193 571.526C372.755 543.08 337.846 497.505 304.013 441.284C270.18 385.063 238.49 318.463 217.468 255.068C196.447 191.673 185.827 132.217 181.098 88.1048C176.368 43.9923 176.54 15.1378 175.18 5.19385C173.819 -4.7501 170.635 4.03206 167.891 30.6764C165.146 57.3208 163.516 102.135 170.914 158.318C178.312 214.501 195.648 281.779 223.084 346.2C250.519 410.621 287.718 471.429 321.897 516.999C356.077 562.568 386.04 592.995 399.535 604.878C413.031 616.761 409.607 610.367 391.36 586.43C373.113 562.492 340.802 520.664 308.257 466.746C275.712 412.828 244.056 346.993 222.872 282.515C201.689 218.037 190.887 155.669 186.861 107.613C182.835 59.5561 184.608 25.8116 185.013 10.8058C185.419 -4.19994 184.046 -0.711363 181.731 20.9295C179.417 42.5704 176.715 82.6552 181.307 135.548C185.899 188.441 198.727 254.01 221.761 319.098C244.795 384.187 277.905 448.029 310.068 498.036C342.231 548.043 372.289 584.161 387.54 601.634C402.792 619.107 402.653 618.219 387.446 599.066C372.238 579.913 342.596 542.201 311.451 491.03C280.306 439.86 248.804 375.322 227.453 310.267C206.103 245.212 194.976 180.399 191.504 128.729C188.031 77.059 191.262 38.6247 193.487 18.6768C195.711 -1.27096 196.411 -3.01918 194.989 13.5693C193.567 30.1578 190.455 65.3337 192.839 114.541C195.222 163.749 204.047 226.977 222.835 292.032C241.622 357.087 270.436 423.242 300.135 477.183C329.835 531.125 359.339 572.668 375.804 595.682C392.27 618.696 394.99 623.453 382.625 609.322C370.26 595.191 343.302 561.928 313.639 513.928C283.975 465.928 252.758 403.204 231.243 338.083C209.728 272.962 198.151 206.193 195.069 151.27C191.988 96.3463 196.505 53.457 200.552 28.7169C204.599 3.97687 207.562 -2.93409 207.439 8.591C207.316 20.1161 204.413 50.2648 205.196 95.4524C205.98 140.64 211.369 200.967 226.156 265.323C240.943 329.678 265.364 397.398 292.239 454.723C319.113 512.047 347.46 558.668 364.596 587.1C381.731 615.532 386.852 626.024 377.084 617.108C367.317 608.192 343.012 579.68 314.886 535.244C286.759 490.808 255.947 430.396 234.278 365.721C212.608 301.045 200.472 232.83 197.617 175.04C194.762 117.251 200.363 70.1779 206.185 40.819C212.006 11.4601 217.361 -0.511133 218.886 5.97104C220.41 12.4532 218.287 37.5102 218.071 78.4115C217.855 119.313 220.424 176.246 231.538 239.274C242.652 302.302 262.7 370.844 286.474 430.958C310.248 491.073 336.892 542.347 354.171 576.008C371.45 609.669 378.479 625.915 371.023 622.359C363.566 618.803 341.836 595.313 315.272 554.802C288.708 514.292 258.408 456.666 236.601 392.943C214.795 329.22 202.004 260.079 199.206 199.839C196.408 139.598 202.871 88.6408 210.383 54.8663C217.894 21.0919 225.697 4.17866 229.153 5.67152C232.608 7.16437 231.784 27.1043 231.16 63.5129C230.535 99.9215 230.925 153.046 238.759 214.165C246.594 275.284 262.401 343.914 282.892 406.198C303.384 468.482 327.847 523.921 344.768 562.552C361.689 601.183 370.116 623.143 364.654 625.042C359.192 626.942 339.9 608.7 314.89 572.447C289.881 536.194 260.191 481.797 238.261 419.519C216.332 357.24 202.813 287.706 199.909 225.451C197.005 163.195 204.088 108.686 213.16 70.7234C222.232 32.7604 232.482 11.0502 238.097 7.63255C243.712 4.2149 244.641 19.0583 244.171 50.8229C243.701 82.5874 242.566 131.566 247.578 190.246C252.589 248.926 264.379 316.943 281.497 380.758C298.615 444.572 320.502 503.627 336.596 546.909C352.689 590.191 362.007 617.753 358.191 625.151C354.374 632.549 337.348 619.739 313.853 588.038C290.358 556.336 261.352 505.582 239.317 445.226C217.282 384.871 202.972 315.474 199.799 251.658C196.625 187.842 204.082 130.143 214.552 88.2483C225.023 46.3538 237.664 20.0073 245.599 11.7864C253.535 3.56544 256.612 13.3612 256.827 40.3839C257.041 67.4066 255.036 111.97 257.725 167.742C260.414 223.513 268.509 290.25 282.252 354.954C295.995 419.657 314.996 481.733 329.841 529.282C344.686 576.831 354.387 609.822 351.854 622.706C349.321 635.59 334.338 628.353 312.281 601.459C290.224 574.566 261.961 527.833 239.833 469.855C217.705 411.876 202.556 343.151 198.958 278.238C195.361 213.325 202.932 152.832 214.612 107.285C226.292 61.7379 241.208 30.9429 251.569 18.0463C261.931 5.14974 267.48 9.97982 268.866 32.2103C270.251 54.4407 268.021 94.3899 268.922 146.846C269.824 199.303 274.621 264.139 285.079 329.093C295.537 394.047 311.428 458.516 324.658 509.898C337.887 561.281 347.481 599.456 345.854 617.758C344.227 636.06 331.037 634.49 310.312 612.614C289.587 590.738 262.096 548.377 239.883 493.211C217.67 438.044 201.645 370.503 197.472 304.968C193.299 239.432 200.733 176.558 213.403 127.668C226.073 78.7772 243.109 43.7338 255.941 26.3161C268.773 8.89843 277.053 8.86214 280.05 26.2972C283.047 43.7322 281.209 78.927 280.879 127.72C280.55 176.513 282.514 238.891 289.857 303.476C297.2 368.062 309.862 434.269 321.169 489.006C332.477 543.744 341.502 586.792 340.4 610.386C339.298 633.98 327.62 638.118 308.093 621.435C288.566 604.752 261.849 567.06 239.549 515.11C217.249 463.16 200.32 397.307 195.432 331.626C190.544 265.945 197.585 201.13 211.01 149.219C224.435 97.3079 243.383 58.254 258.676 36.4855C273.968 14.7169 285.167 9.94514 290.163 22.6163C295.158 35.2874 294.298 65.6505 293.301 110.499C292.305 155.348 291.957 214.766 296.435 278.388C300.914 342.01 310.312 409.294 319.457 466.866C328.602 524.438 336.637 571.993 335.691 600.698C334.745 629.402 324.267 639.241 305.775 627.872C287.284 616.503 261.318 583.753 238.92 535.39C216.523 487.028 198.671 423.348 192.933 357.996C187.195 292.645 193.599 226.338 207.525 171.76C221.45 117.182 242.073 74.3617 259.76 48.4346C277.448 22.5075 291.687 13.1437 299.014 21.1171C306.341 29.0906 306.996 54.6015 305.894 95.2822C304.792 135.963 302.695 191.991 304.628 254.094C306.561 316.196 312.756 383.893 319.572 443.749C326.389 503.605 333.055 555.247 331.906 588.824C330.757 622.402 321.158 637.877 303.518 631.904C285.878 625.931 260.613 598.341 238.094 553.907C215.575 509.473 196.786 448.42 190.074 383.867C183.361 319.313 188.888 251.981 203.052 195.1C217.216 138.219 239.237 91.9071 259.205 62.0311C279.174 32.1551 296.508 18.3631 306.436 21.7382C316.364 25.1133 319.028 45.791 318.369 82.1444C317.71 118.498 314.455 170.77 314.22 230.839C313.985 290.908 317.13 358.365 321.525 419.939C325.92 481.514 330.899 536.762 329.213 574.924C327.528 613.085 318.475 634.08 301.481 633.533C284.488 632.986 259.853 610.738 237.177 570.532C214.5 530.325 194.76 472.333 186.959 409.035C179.157 345.738 183.579 277.849 197.708 219.047C211.838 160.246 234.957 110.736 257.046 77.1394C279.134 43.543 299.552 25.4964 312.294 24.3976C325.036 23.2989 330.14 39.2095 330.453 71.1285C330.765 103.048 326.951 151.273 324.979 208.842C323.007 266.41 323.332 333.007 325.288 395.716C327.245 458.426 330.281 516.767 327.754 559.172C325.227 601.577 316.388 627.922 299.829 632.784C283.271 637.645 259.158 620.874 236.278 585.161C213.398 549.447 192.694 494.91 183.692 433.307C174.691 371.705 177.795 303.736 191.617 243.407C205.439 183.078 229.329 130.685 253.336 93.6096C277.343 56.5342 300.774 34.4283 316.475 29.0007C332.176 23.5732 340.097 34.8192 341.875 62.2518C343.653 89.6844 339.889 133.639 336.648 188.296C333.407 242.953 331.227 308.095 330.799 371.363C330.372 434.63 331.28 495.507 327.647 541.77C324.013 588.033 315.065 619.503 298.715 629.71C282.364 639.917 258.657 628.707 235.514 597.71C212.37 566.714 190.687 515.993 180.385 456.507C170.083 397.022 171.671 329.44 184.908 267.988C198.145 206.537 222.469 151.585 248.152 111.291C273.834 70.9961 300.149 45.0296 318.899 35.4419C337.649 25.8542 348.692 32.5634 352.391 55.508C356.091 78.4525 352.973 117.976 348.961 169.367C344.949 220.758 340.642 283.9 337.962 347.151C335.283 410.401 333.944 473.239 328.982 522.935C324.019 572.631 314.657 608.947 298.289 624.382C281.921 639.816 258.48 634.217 235.001 608.115C211.522 582.013 188.843 535.439 177.147 478.468C165.452 421.497 165.338 354.765 177.718 292.594C190.097 230.424 214.503 173.264 241.589 130.025C268.675 86.7854 297.69 57.1679 319.512 43.603C341.334 30.038 355.741 32.3663 361.776 50.8639C367.81 69.3614 365.911 104.361 361.645 152.19C357.379 200.02 351.381 260.667 346.647 323.345C341.913 386.023 338.289 450.228 331.827 502.896C325.365 555.564 315.303 596.397 298.696 616.898C282.088 637.4 258.759 637.403 234.863 616.336C210.966 595.269 187.269 553.125 174.092 499.04C160.915 444.955 158.933 379.522 170.189 317.041C181.445 254.56 205.575 195.548 233.761 149.646C261.947 103.744 293.426 70.7045 318.289 53.3593C343.152 36.0141 361.096 34.1382 369.823 48.2659C378.55 62.3937 378.415 92.8388 374.418 136.876C370.422 180.912 363.217 238.62 356.692 300.197C350.167 361.775 344.293 426.743 336.214 481.895C328.135 537.047 317.122 582.02 300.063 607.377C283.003 632.733 259.622 638.289 235.219 622.353C210.816 606.417 186.073 568.951 171.333 518.093C156.594 467.235 152.593 403.532 162.466 341.146C172.339 278.76 195.834 218.262 224.794 169.993C253.754 121.723 287.42 85.4912 315.231 64.5739C343.042 43.6565 364.629 37.7703 376.354 47.6433C388.08 57.5163 390.209 83.4276 387.004 123.497C383.8 163.566 375.908 217.958 367.909 277.937C359.911 337.916 351.903 403.056 342.145 460.179C332.387 517.301 320.212 566.003 302.504 595.959C284.797 625.915 261.193 636.923 236.187 626.169C211.18 615.415 185.363 582.831 168.986 535.51C152.609 488.19 146.455 426.626 154.698 364.734C162.941 302.841 185.441 241.234 214.831 190.899C244.222 140.564 279.751 101.383 310.368 77.1094C340.984 52.8359 366.246 43.1458 381.216 48.9091C396.185 54.6725 401.038 76.1179 399.135 112.102C397.232 148.087 389.196 198.852 380.093 256.78C370.991 314.708 361.028 379.432 349.593 438.002C338.158 496.572 324.651 548.541 306.119 582.799C287.587 617.058 263.591 633.372 237.883 627.807C212.175 622.242 185.245 594.703 167.161 551.197C149.076 507.691 140.65 448.655 147.03 387.642C153.41 326.629 174.567 264.29 204.026 212.201C233.486 160.112 270.527 118.225 303.751 90.821C336.976 63.4168 365.885 50.134 384.284 51.9547C402.682 53.7755 410.66 70.8716 410.543 102.713C410.427 134.555 402.808 181.447 393.012 236.913C383.216 292.378 371.554 356.128 358.5 415.617C345.446 475.106 330.487 529.851 310.982 568.072C291.478 606.294 266.928 627.725 240.416 627.312C213.904 626.899 185.825 604.527 165.971 565.074C146.116 525.621 135.316 469.475 139.611 409.716C143.907 349.958 163.384 287.266 192.546 233.736C221.707 180.206 259.872 135.867 295.46 105.564C331.047 75.2603 363.51 58.5977 385.461 56.6666C407.413 54.7355 418.857 67.6289 420.985 95.3216C423.114 123.014 416.466 165.855 406.423 218.5C396.379 271.146 383.328 333.395 368.776 393.273C354.225 453.151 337.748 510.159 317.152 551.971C296.557 593.784 271.3 620.087 243.889 624.747C216.479 629.407 187.203 612.278 165.523 577.083C143.843 541.888 130.579 488.962 132.587 430.818C134.595 372.674 152.067 310.004 180.559 255.347C209.05 200.69 247.931 154.159 285.596 121.186C323.261 88.212 359.119 68.3982 384.682 62.9155C410.245 57.4327 425.437 66.311 430.229 89.8972C435.022 113.483 429.895 152.159 420.071 201.682C410.247 251.204 396.179 311.464 380.305 371.213C364.43 430.962 346.429 489.698 324.662 534.694C302.895 579.689 276.795 610.586 248.393 620.198C219.991 629.809 189.479 617.955 165.92 587.186C142.361 556.418 126.564 507.01 126.102 450.82C125.64 394.629 140.795 332.35 168.247 276.882C195.698 221.415 234.866 172.952 274.281 137.544C313.695 102.136 352.738 79.3841 381.908 70.5673C411.078 61.7505 430.231 66.8155 438.063 86.385C445.894 105.954 442.817 140.411 433.694 186.564C424.572 232.716 409.905 290.548 392.941 349.67C375.977 408.791 356.501 468.709 333.522 516.453C310.543 564.198 283.48 599.367 254.008 613.763C224.536 628.159 192.743 621.574 167.263 595.36C141.784 569.146 123.393 523.528 120.291 469.607C117.189 415.686 129.748 354.161 155.79 298.194C181.832 242.227 220.848 192.097 261.655 154.489C302.462 116.88 344.418 91.4105 377.131 79.4787C409.845 67.5469 433.103 69.0287 444.299 84.7045C455.494 100.38 454.966 130.635 447.034 173.231C439.101 215.827 424.288 270.843 406.517 328.86C388.746 386.876 367.906 447.432 343.715 497.47C319.523 547.508 291.414 586.586 260.802 605.562C230.19 624.539 197.076 623.174 169.64 601.606C142.205 580.037 121.18 538.438 115.291 487.085C109.401 435.732 119.099 375.304 143.374 319.149C167.649 262.994 206.066 211.458 247.88 171.881C289.695 132.304 334.241 104.328 370.373 89.5062C406.506 74.6849 433.947 72.82 448.776 84.7644C463.605 96.7088 466.086 122.824 459.825 161.734C453.563 200.644 439.092 252.517 420.842 308.987C402.592 365.457 380.557 426.108 355.202 477.967C329.847 529.826 300.627 572.419 268.828 595.732C237.029 619.045 202.557 622.805 173.138 605.935C143.72 589.064 120.033 551.686 111.227 503.17C102.421 454.655 109.021 395.66 131.184 339.615C153.347 283.571 190.72 230.899 233.128 189.583C275.537 148.267 322.314 117.99 361.684 100.502C401.055 83.013 432.681 78.0474 451.355 86.448C470.029 94.8487 475.937 116.942 471.815 152.097C467.693 187.253 454.069 235.715 435.709 290.234C417.349 344.754 394.343 404.971 367.917 458.172C341.492 511.372 311.138 557.049 278.119 584.418C245.1 611.788 209.249 620.54 177.83 608.381C146.411 596.222 120.047 563.228 108.219 517.795C96.3912 472.361 99.6828 415.119 119.402 359.48C139.121 303.84 175.01 250.29 217.587 207.459C260.164 164.628 308.766 132.252 351.138 112.318C393.51 92.3848 429.262 84.5626 451.932 89.6324C474.602 94.7021 484.295 112.933 482.76 144.318C481.225 175.702 468.963 220.553 450.893 272.762C432.823 324.971 409.125 384.253 381.768 438.309C354.411 492.366 322.939 540.673 288.697 571.786C254.454 602.9 217.204 616.466 183.782 608.996C150.361 601.525 121.316 573.043 106.379 530.909C91.4429 488.775 91.2395 433.585 108.208 378.633C125.176 323.681 159.146 269.514 201.452 225.391C243.758 181.267 293.751 146.979 338.839 124.81C383.927 102.641 423.675 92.2129 450.426 94.1771C477.178 96.1413 490.964 110.714 492.43 138.365C493.896 166.017 483.51 207.119 466.157 256.708C448.804 306.296 424.742 364.166 396.638 418.599C368.534 473.033 336.001 523.495 300.556 558.007C265.111 592.519 226.462 610.686 191.046 607.844C155.631 605.001 123.918 581.12 105.807 542.475C87.6958 503.829 83.8446 450.972 97.7753 396.981C111.706 342.989 143.34 288.463 184.928 243.259C226.517 198.056 277.44 162.038 324.911 137.839C372.383 113.639 415.936 100.839 446.791 99.9389C477.646 99.0388 495.768 110.179 500.613 134.185C505.457 158.19 497.452 195.471 481.259 242.183C465.066 288.895 441.012 344.914 412.392 399.255C383.773 453.597 350.277 505.724 313.68 543.265C277.082 580.805 237.051 603.318 199.663 605.004C162.275 606.691 127.924 587.469 106.594 552.471C85.2634 517.473 77.6383 467.213 88.2696 414.441C98.9009 361.669 127.801 307.034 168.23 260.959C208.658 214.884 260.02 177.307 309.505 151.271C358.99 125.235 406.093 110.286 441.012 106.763C475.931 103.24 498.56 111.205 507.117 131.696C515.674 152.186 510.531 185.638 495.953 229.27C481.374 272.902 457.731 326.683 428.871 380.48C400.01 434.278 365.691 487.575 328.025 527.748C290.358 567.921 248.981 594.491 209.659 600.572C170.337 606.652 133.389 592.108 108.821 560.89C84.2529 529.673 72.7515 482.247 79.85 430.943C86.9486 379.639 112.74 325.138 151.565 278.393C190.391 231.647 241.696 192.674 292.786 164.978C343.876 137.282 394.223 120.399 433.1 114.497C471.977 108.595 499.221 113.655 511.775 130.802C524.33 147.948 522.5 177.622 509.988 218.029C497.476 258.435 474.686 309.637 445.893 362.464C417.1 415.291 382.149 469.259 343.532 511.653C304.915 554.047 262.245 584.35 221.049 594.655C179.852 604.96 140.363 595.076 112.554 567.741C84.7447 540.407 69.3023 496.029 72.6616 446.425C76.0209 396.82 98.3586 342.696 135.15 295.474C171.942 248.253 222.685 208.033 274.943 178.846C327.2 149.659 380.429 131.029 423.101 122.984C465.773 114.94 497.665 117.379 514.442 131.382C531.22 145.385 533.121 171.394 523.121 208.488C513.12 245.583 491.643 293.919 463.265 345.38C434.886 396.842 399.535 450.988 360.116 495.178C320.696 539.368 276.823 573.048 233.828 587.374C190.834 601.7 148.878 596.424 117.849 573.043C86.8209 549.662 67.398 508.527 66.8415 460.841C66.2851 413.155 84.8519 359.639 119.197 312.128C153.542 264.616 203.21 223.296 256.176 192.765C309.141 162.235 364.845 142.032 411.087 132.072C457.329 122.113 493.836 122.213 515.005 133.305C536.175 144.397 542.176 166.897 535.115 200.649C528.055 234.401 508.365 279.646 480.777 329.384C453.188 379.123 417.708 432.97 377.674 478.522C337.639 524.073 292.674 560.748 247.98 578.86C203.286 596.971 158.949 596.213 124.748 576.826C90.5459 557.44 67.1284 519.719 62.5127 474.153C57.897 428.588 72.411 375.907 103.911 328.287C135.41 280.667 183.502 238.38 236.696 206.642C289.89 174.905 347.624 153.278 397.158 141.616C446.692 129.954 487.708 127.994 513.377 136.423C539.045 144.852 549.464 164.05 545.748 194.487C542.033 224.924 524.609 266.912 498.206 314.612C471.802 362.312 436.513 415.403 396.085 461.878C355.656 508.354 309.739 547.623 263.466 569.255C217.194 590.886 170.588 594.52 133.277 579.139C95.9672 563.758 68.5708 529.596 59.7855 486.338C51.0002 443.079 61.2075 391.454 89.4897 343.9C117.772 296.346 163.795 253.219 216.729 220.393C269.663 187.568 328.945 164.644 381.443 151.473C433.94 138.302 479.293 134.55 509.504 140.582C539.714 146.613 554.806 162.749 554.809 189.947C554.813 217.145 540.124 255.781 515.325 301.173C490.527 346.566 455.773 398.472 415.206 445.442C374.639 492.413 327.943 533.849 280.238 558.707C232.533 583.565 183.781 591.43 143.452 580.037C103.122 568.645 71.7914 538.157 58.753 497.377C45.7146 456.597 51.4101 406.237 76.1281 358.92C100.846 311.603 144.323 267.757 196.501 233.949C248.678 200.141 309.006 176.022 364.091 161.516C419.177 147.01 468.632 141.717 503.36 145.617C538.089 149.517 558.051 162.87 562.105 186.953C566.16 211.036 554.671 246.289 531.9 289.156C509.128 332.023 475.296 382.355 434.878 429.399C394.461 476.444 347.189 519.608 298.225 547.376C249.26 575.144 198.504 587.041 155.267 579.587C112.029 572.132 76.8359 545.413 59.4986 507.264C42.1614 469.115 43.1655 420.231 64.004 373.313C84.8425 326.394 125.317 281.947 176.246 247.252C227.174 212.557 288.019 187.319 345.277 171.626C402.535 155.933 455.796 149.326 494.957 151.364C534.118 153.403 559.075 164.267 567.468 185.408C575.861 206.549 568.007 238.443 547.694 278.623C527.38 318.802 494.875 367.207 454.925 413.922C414.976 460.637 367.367 505.084 317.337 535.422C267.307 565.76 214.718 581.466 168.706 577.868C122.694 574.271 83.7374 551.386 62.0839 516.005C40.4305 480.625 36.6108 433.41 53.286 387.049C69.9612 340.689 107.005 295.76 156.197 260.256C205.389 224.752 266.212 198.455 325.194 181.697C384.175 164.94 440.886 157.221 484.328 157.657C527.771 158.094 557.783 166.783 570.752 185.191C583.721 203.598 579.907 232.223 562.472 269.607C545.037 306.992 514.291 353.169 475.158 399.173C436.026 445.178 388.344 490.46 337.472 523.013C286.6 555.565 232.366 574.816 183.738 574.966C135.111 575.116 92.5101 556.104 66.5609 523.61C40.6117 491.116 31.8659 445.759 44.1287 400.115C56.3916 354.47 89.6048 309.169 136.586 272.93C183.568 236.692 243.823 209.368 304.051 191.643C364.279 173.918 424.036 165.256 471.547 164.337C519.058 163.418 554.11 170.251 571.835 186.165C589.56 202.079 590.154 227.58 576.012 262.118C561.87 296.655 533.323 340.359 495.373 385.301C457.422 430.243 409.973 475.921 358.511 510.318C307.049 544.715 251.377 567.223 200.312 570.981C149.248 574.739 103.156 559.609 72.958 530.099C42.7604 500.588 29.0315 457.273 36.6707 412.496C44.31 367.718 73.3253 322.163 117.638 285.251C161.951 248.34 221.096 220.01 282.07 201.388C343.043 182.766 405.401 173.292 456.711 171.246C508.022 169.2 548.028 174.49 570.627 188.177C593.226 201.863 598.55 224.437 588.092 256.134C577.634 287.83 551.734 328.871 515.357 372.434C478.98 415.998 432.09 461.64 380.313 497.505C328.536 533.369 271.662 558.817 218.367 566.015C165.072 573.213 115.66 561.942 81.294 535.496C46.9284 509.05 28.1944 467.947 31.0351 424.186C33.8758 380.425 58.3652 334.736 99.574 297.212C140.783 259.687 198.279 230.353 259.486 210.875C320.693 191.397 385.163 181.215 439.948 178.242C494.733 175.269 539.539 179.323 567.071 191.063C594.603 202.802 604.92 222.695 598.507 251.611C592.095 280.527 569.293 318.774 534.892 360.682C500.49 402.591 454.517 447.788 402.727 484.741C350.938 521.693 293.117 549.742 237.818 560.183C182.52 570.623 129.986 563.162 91.5643 539.839C53.1426 516.516 29.4224 477.786 27.3274 435.189C25.2323 392.593 44.9059 346.892 82.6008 308.808C120.296 270.723 175.621 240.379 236.54 220.066C297.458 199.752 363.524 188.919 421.409 185.191C479.295 181.463 528.679 184.567 561.134 194.652C593.589 204.738 609.107 222.228 607.07 248.476C605.034 274.723 585.765 310.11 553.752 350.136C521.738 390.163 477.063 434.527 425.585 472.189C374.108 509.851 315.623 540.14 258.572 553.603C201.52 567.065 146.089 563.331 103.755 543.168C61.4203 523.006 32.7628 486.795 25.6359 445.507C18.509 404.219 33.1144 358.636 66.9188 320.047C100.723 281.459 153.37 250.088 213.475 228.933C273.581 207.778 340.704 196.32 401.272 191.977C461.841 187.634 515.516 190.046 552.818 198.772C590.121 207.497 610.985 222.897 613.612 246.634C616.24 270.372 600.924 302.898 571.71 340.858C542.496 378.817 499.522 422.001 448.706 460.005C397.891 498.009 339.045 530.163 280.515 546.402C221.985 562.64 163.902 562.52 117.826 545.53C71.7489 528.539 38.2471 494.987 26.0316 455.148C13.816 415.309 23.1452 369.98 52.7106 330.948C82.2761 291.916 131.767 259.493 190.54 237.474C249.313 215.455 316.938 203.357 379.734 198.502C442.53 193.647 500.149 195.592 542.162 203.242C584.175 210.892 610.455 224.536 617.984 245.967C625.513 267.399 614.547 297.125 588.544 332.889C562.542 368.653 521.684 410.345 471.898 448.335C422.113 486.325 363.234 519.961 303.523 538.707C243.812 557.454 183.346 560.805 133.73 546.98C84.1142 533.155 45.8911 502.379 28.5664 464.126C11.2418 425.873 15.1292 380.942 40.1451 341.526C65.1611 302.11 111.044 268.617 167.977 245.693C224.911 222.769 292.472 209.984 357.01 204.683C421.548 199.382 482.708 201.048 529.229 207.896C575.75 214.744 607.449 226.975 620.066 246.34C632.684 265.704 626.427 292.749 604.033 326.243C581.638 359.737 543.328 399.672 494.958 437.313C446.588 474.954 388.026 509.686 327.449 530.657C266.873 551.627 204.323 558.275 151.395 547.581C98.4673 536.886 55.6853 508.987 33.2736 472.454C10.8619 435.921 9.18141 391.537 29.3783 351.807C49.5752 312.077 91.4255 277.497 146.026 253.615C200.626 229.732 267.56 216.183 333.331 210.461C399.102 204.738 463.353 206.269 514.118 212.565C564.883 218.861 601.931 230.027 619.767 247.597C637.602 265.168 636.369 289.705 617.965 320.91C599.56 352.115 564.232 390.076 517.674 427.063C471.117 464.05 413.244 499.486 352.144 522.384C291.044 545.281 226.72 555.017 170.739 547.395C114.758 539.773 67.6077 514.834 40.1688 480.149C12.7299 445.463 5.40119 401.782 20.5425 361.817C35.6839 321.852 73.1204 286.174 124.915 261.27C176.709 236.366 242.461 221.951 308.938 215.797C375.415 209.642 442.267 211.134 496.955 217.099C551.644 223.064 593.9 233.503 617.018 249.571C640.135 265.639 644.199 287.9 630.143 316.849C616.086 345.798 584.167 381.63 539.83 417.687C495.494 453.744 438.701 489.509 377.436 514.022C316.17 538.535 250.412 551.131 191.66 546.498C132.907 541.865 81.6187 519.948 49.2473 487.227C16.8758 454.505 3.86263 411.696 13.7561 371.582C23.6496 331.467 56.3253 294.697 104.868 268.706C153.41 242.714 217.431 227.306 284.078 220.671C350.725 214.036 419.655 215.537 477.894 221.355C536.132 227.174 583.383 237.214 611.789 252.087C640.194 266.96 649.764 287.216 640.378 314C630.992 340.785 602.907 374.383 561.208 409.273C519.509 444.164 464.196 479.895 403.144 505.71C342.091 531.525 275.255 546.72 214.041 544.967C152.828 543.214 97.6555 524.356 60.4855 493.71C23.3154 463.065 4.62403 421.294 9.11835 381.128C13.6127 340.963 41.2187 303.12 86.0894 275.974C130.96 248.829 192.727 232.284 259.005 225.09C325.283 217.895 395.742 219.396 457.113 225.216C518.484 231.036 570.452 240.969 604.077 254.961C637.701 268.953 652.934 287.515 648.505 312.273C644.075 337.03 620.233 368.359 581.585 401.888C542.936 435.417 489.521 470.775 429.077 497.574C368.633 524.373 301.094 541.893 237.752 542.885C174.411 543.876 115.642 528.093 73.8455 499.62C32.0487 471.147 7.72324 430.588 6.70803 390.483C5.69283 350.377 27.9611 311.495 68.7774 283.136C109.594 254.776 168.6 236.943 233.973 229.073C299.347 221.204 370.771 222.654 434.815 228.578C498.86 234.502 555.199 244.59 593.915 258.01C632.632 271.43 653.609 288.638 654.378 311.555C655.148 334.473 635.933 363.556 600.74 395.573C565.546 427.59 514.465 462.267 455.034 489.741C395.604 517.215 327.758 536.76 262.645 540.342C197.532 543.924 135.486 531.196 89.2674 504.982C43.0489 478.768 13.1807 439.592 6.58507 399.667C-0.0106037 359.741 16.6993 319.88 53.1079 290.255C89.5165 260.63 145.288 241.347 209.233 232.667C273.179 223.988 344.995 225.282 411.22 231.365C477.444 237.449 537.756 247.905 581.367 261.05C624.978 274.196 651.717 290.409 657.875 311.716C664.032 333.023 649.799 359.943 618.46 390.352C587.121 420.761 538.803 454.48 480.805 482.329C422.808 510.177 355.07 531.438 288.563 537.429C222.056 543.419 157.075 533.707 106.676 509.82C56.2765 485.932 20.9918 448.315 8.79046 408.701C-3.4109 369.088 7.55456 328.325 39.245 297.394C70.9355 266.464 123.023 245.58 185.031 235.929C247.039 226.278 318.674 227.271 386.56 233.519C454.446 239.766 518.279 250.764 566.53 263.91C614.781 277.056 647.22 292.643 658.901 312.604C670.582 332.564 661.644 357.467 634.538 386.219C607.431 414.971 562.315 447.503 506.177 475.445C450.04 503.386 382.833 526.041 315.332 534.241C247.83 542.442 180.284 535.671 125.976 514.164C71.6669 492.657 31.1376 456.763 13.3463 417.603C-4.44503 378.444 0.635716 336.88 27.329 304.621C54.0222 272.361 102.019 249.729 161.602 238.934C221.186 228.138 292.07 228.643 361.087 235.011C430.103 241.38 496.959 253.031 549.528 266.424C602.098 279.818 640.112 295.147 657.389 314.052C674.667 332.958 671.296 356.041 648.779 383.145C626.262 410.248 584.774 441.408 530.929 469.182C477.083 496.955 410.848 520.684 342.767 530.877C274.687 541.07 204.968 537.143 147.055 518.047C89.1429 498.95 43.5801 464.939 20.2525 426.382C-3.07514 387.825 -3.97211 345.587 17.4875 311.997C38.9471 278.407 82.4763 253.894 139.173 241.768C195.87 229.642 265.454 229.44 335.054 235.839C404.654 242.238 474.001 254.597 530.519 268.445C587.036 282.294 630.419 297.719 653.305 315.883C676.191 334.046 678.604 355.564 660.998 381.076C643.391 406.589 605.959 436.249 554.839 463.622C503.72 490.994 438.903 515.479 370.673 527.438C302.443 539.396 230.972 538.178 169.792 521.504C108.611 504.83 58.258 472.85 29.4934 435.049C0.728727 397.249 -6.20429 354.482 9.82458 319.582C25.8535 284.682 64.581 258.175 117.958 244.533C171.335 230.891 239.083 229.729 308.719 236.024C378.355 242.318 449.637 255.374 509.68 269.844C569.724 284.313 618.203 300.166 646.641 317.91C675.08 335.654 683.438 355.901 671.031 379.937C658.625 403.972 625.653 432.052 577.688 458.826C529.723 485.6 466.78 510.534 398.846 524.018C330.913 537.503 258.126 538.836 194.04 524.575C129.954 510.313 75.0972 480.494 41.0311 443.607C6.96498 406.721 -6.01356 363.596 4.42854 327.43C14.8706 291.264 48.4953 262.673 98.1521 247.329C147.809 231.986 213.212 229.6 282.342 235.61C351.472 241.621 424.115 255.306 487.221 270.51C550.328 285.715 603.56 302.294 637.43 319.945C671.301 337.596 685.694 356.901 678.735 379.62C671.777 402.339 643.643 428.827 599.253 454.843C554.863 480.858 494.255 505.95 427.073 520.717C359.892 535.485 286.242 539.185 219.644 527.302C153.046 515.419 94.003 487.873 54.812 452.06C15.621 416.247 -3.37307 372.947 1.36718 335.583C6.10742 298.219 34.3692 267.487 79.9367 250.269C125.504 233.052 188.086 229.157 256.18 234.669C324.275 240.182 397.694 254.365 463.362 270.367C529.031 286.369 586.62 303.926 625.732 321.799C664.844 339.672 685.303 358.397 683.985 380.004C682.667 401.612 659.73 426.552 619.322 451.693C578.914 476.833 521.104 501.819 455.137 517.624C389.169 533.429 315.13 539.295 246.43 529.733C177.731 520.17 114.86 494.99 70.7605 460.404C26.6606 425.818 1.7266 382.549 0.687748 344.08C-0.351103 305.611 22.327 272.714 63.4743 253.463C104.622 234.212 163.935 228.523 230.482 233.29C297.028 238.057 370.64 252.549 438.348 269.353C506.056 286.158 567.54 304.893 611.642 323.289C655.743 341.684 682.219 360.202 686.685 380.947C691.151 401.693 673.727 425.184 637.69 449.38C601.654 473.577 547.096 498.22 482.81 514.828C418.525 531.435 344.579 539.238 274.219 531.918C203.859 524.597 137.543 501.849 88.7866 468.638C40.03 435.426 9.27284 392.404 2.41864 352.95C-4.43557 313.496 12.4808 278.441 48.9131 257.016C85.3454 235.592 140.978 227.831 205.486 231.581C269.994 235.331 343.226 249.893 412.429 267.444C481.631 284.996 546.511 305.054 595.285 324.242C644.059 343.43 676.434 362.123 686.767 382.284C697.1 402.444 685.463 424.653 654.161 447.883C622.858 471.113 572.003 495.222 509.868 512.405C447.732 529.588 374.374 539.092 302.81 533.91C231.246 528.729 161.903 508.454 108.78 476.758C55.6569 445.061 19.2357 402.507 6.57245 362.21C-6.0908 321.912 4.91882 284.747 36.376 261.038C67.8331 237.329 119.411 227.224 181.419 229.671C243.427 232.117 315.724 246.455 385.866 264.642C456.008 282.829 523.743 304.287 576.818 324.501C629.892 344.715 667.973 363.961 684.191 383.841C700.409 403.721 694.788 424.866 668.552 447.159C642.316 469.453 595.602 492.872 536.082 510.422C476.561 527.972 404.293 538.933 331.999 535.769C259.705 532.605 187.78 514.814 130.617 484.76C73.453 454.705 31.5648 412.846 13.1382 371.869C-5.28841 330.892 -0.288057 291.699 25.9717 265.624C52.2314 239.548 99.4195 226.849 158.495 227.694C217.571 228.539 288.399 242.324 358.927 260.978C429.455 279.632 499.475 302.496 556.425 323.927C613.376 345.358 656.894 365.512 678.953 385.437C701.011 405.361 701.57 425.701 680.7 447.139C659.829 468.576 617.672 491.201 561.227 508.934C504.782 526.667 434.106 538.835 361.571 537.55C289.036 536.265 214.998 520.943 154.152 492.637C93.3062 464.331 46.1969 423.401 22.0922 381.926C-2.01264 340.451 -3.08774 299.352 17.7917 270.86C38.6712 242.369 81.1632 226.855 136.908 225.799C192.653 224.743 261.508 237.614 331.876 256.512C402.244 275.41 473.956 299.619 534.311 322.401" stroke="#8FACA9" stroke-width="0.3" stroke-linecap="round" stroke-linejoin="round"/>
</svg>
