<svg width="250" height="204" viewBox="0 0 250 204" fill="none" xmlns="http://www.w3.org/2000/svg">
<path d="M48.3381 94.9932C75.031 94.9932 96.6763 73.7268 96.6763 47.501C96.6763 21.2752 75.031 0.00878906 48.3381 0.00878906C21.6452 0.00878906 0 21.2752 0 47.501C0 73.7268 21.6452 94.9932 48.3381 94.9932Z" fill="#FCFBFB"/>
<path d="M166.162 94.9845C192.855 94.9845 214.5 73.718 214.5 47.4922C214.5 21.2664 192.855 0 166.162 0C139.469 0 117.824 21.2664 117.824 47.4922C117.909 73.718 139.469 94.9845 166.162 94.9845Z" fill="#FCFBFB"/>
<path d="M201.662 203.665C228.355 203.665 250 182.399 250 156.173C250 129.947 228.355 108.681 201.662 108.681C174.969 108.681 153.324 129.947 153.324 156.173C153.324 182.399 174.969 203.665 201.662 203.665Z" fill="#89BCA4"/>
</svg>
